# xmcd
#
# Track frame offsets:
#	150
#	18470
#	33895
#	48629
#	67072
#	78106
#	95701
#	109859
#	125607
#	147195
#	158254
#	175853
#	189758
#	204962
#	216920
#
# Disc length: 3110 seconds
#
# Revision: 1
# Processed by: cddbd v1.5.2PL0 Copyright (c) Steve Scherf et al.
# Submitted via: EZCDAudioConverter 1.3.4.1
#
DISCID=c60c240f
DTITLE=Various Artist - Black Keys And Friends
DYEAR=2014
DGENRE=Blues
TTITLE0=Black Keys - Fever
TTITLE1=Dr. John - Revolution
TTITLE2=Hanni El Khatib - Head In The Dirt
TTITLE3=Bombino - Azamane Tiliade
TTITLE4=Black Lips - Do The Vibrate
TTITLE5=Stephen Dale Petit - Holla
TTITLE6=The Sheepdogs - Feeling Good
TTITLE7=Pete Molinari - So Long Gone
TTITLE8=Junior Kimbrough - Everywhere I Go
TTITLE9=Bo Diddley - Who Do You Love?
TTITLE10=Valerie June - Wanna Be On Your Mind
TTITLE11=Jessica Lea Mayfield - Our Hearts Are Wrong
TTITLE12=Tennis - It All Feels The Same
TTITLE13=R.L. Burnside - Skinny Woman
TTITLE14=Black Keys - Gold On The Ceiling [Live In Studio]
EXTD=
EXTT0=
EXTT1=
EXTT2=
EXTT3=
EXTT4=
EXTT5=
EXTT6=
EXTT7=
EXTT8=
EXTT9=
EXTT10=
EXTT11=
EXTT12=
EXTT13=
EXTT14=
PLAYORDER=
